<svg id="Capa_1" enable-background="new 0 0 512 512" height="512" viewBox="0 0 512 512" width="512" xmlns="http://www.w3.org/2000/svg"><g><path d="m399.06 399.12h-45.12c-8.28 0-15 6.71-15 15v60.229c0 8.29 6.72 15 15 15h45.12c8.28 0 15-6.71 15-15v-60.229c0-8.29-6.72-15-15-15z" fill="#3b1b11"/><path d="m158.12 399.12h-45.24c-8.28 0-15 6.71-15 15v60.229c0 8.29 6.72 15 15 15h45.24c8.28 0 15-6.71 15-15v-60.229c0-8.29-6.72-15-15-15z" fill="#663b33"/><path d="m222.774 300.543c-2.82-3.921-7.35-6.24-12.17-6.24h-120.08c-4.82 0-9.35 2.319-12.17 6.24l-75.53 104.88c-3.29 4.56-3.74 10.59-1.17 15.6 2.56 5.01 7.72 8.16 13.35 8.16h105.436z" fill="#90cc1c"/><path d="m211.254 187.723c-1.2-1.86-2.79-3.43-4.66-4.61l-48.07-30.109c-4.87-3.061-11.05-3.061-15.92 0l-48.07 30.109c-1.87 1.181-3.46 2.75-4.66 4.62l-72.44 112.94c-2.96 4.609-3.16 10.479-.53 15.29 2.63 4.81 7.68 7.81 13.16 7.81h105.436z" fill="#6b0"/><path d="m268.484 187.503-105.44-158.11c-2.78-4.18-7.47-6.68-12.48-6.68s-9.7 2.5-12.48 6.68l-105.44 158.11c-3.07 4.609-3.35 10.52-.74 15.399 2.61 4.88 7.69 7.92 13.22 7.92h105.436s120.994-18.71 117.924-23.319z" fill="#90cc1c"/><path d="m289.226 300.543c2.82-3.921 7.35-6.24 12.17-6.24h120.08c4.82 0 9.35 2.319 12.17 6.24l75.53 104.88c3.29 4.56 3.74 10.59 1.17 15.6-2.56 5.01-7.72 8.16-13.35 8.16h-105.436z" fill="#6b0"/><path d="m300.746 187.723c1.2-1.86 2.79-3.43 4.66-4.61l48.07-30.109c4.87-3.061 11.05-3.061 15.92 0l48.07 30.109c1.87 1.181 3.46 2.75 4.66 4.62l72.44 112.94c2.96 4.609 3.16 10.479.53 15.29-2.63 4.81-7.68 7.81-13.16 7.81h-105.436z" fill="#009859"/><path d="m243.516 187.503 105.44-158.11c2.78-4.18 7.47-6.68 12.48-6.68s9.7 2.5 12.48 6.68l105.44 158.11c3.07 4.609 3.35 10.52.74 15.399-2.61 4.88-7.69 7.92-13.22 7.92h-105.436s-120.994-18.71-117.924-23.319z" fill="#6b0"/><path d="m293.59 414.12v60.229c0 8.29-6.72 15-15 15h-45.18c-8.28 0-15-6.71-15-15v-60.229c0-8.29 6.72-15 15-15h45.18c8.28 0 15 6.71 15 15z" fill="#804b40"/><path d="m293.59 414.12v60.229c0 8.29-6.72 15-15 15h-22.59v-90.229h22.59c8.28 0 15 6.71 15 15z" fill="#663b33"/><path d="m404.91 420.96c-2.56 5.01-7.72 8.16-13.35 8.16h-271.12c-5.63 0-10.79-3.15-13.35-8.16-2.57-5.01-2.12-11.04 1.17-15.6l75.53-104.88c2.82-3.921 7.35-6.24 12.17-6.24h120.08c4.82 0 9.35 2.319 12.17 6.24l75.53 104.88c3.29 4.56 3.74 10.59 1.17 15.6z" fill="#b9dd39"/><path d="m404.91 420.96c-2.56 5.01-7.72 8.16-13.35 8.16h-135.56v-134.88h60.04c4.82 0 9.35 2.319 12.17 6.24l75.53 104.88c3.29 4.56 3.74 10.59 1.17 15.6z" fill="#90cc1c"/><path d="m389.66 315.901c-2.63 4.81-7.68 7.81-13.16 7.81h-241c-5.48 0-10.53-3-13.16-7.81-2.63-4.811-2.43-10.681.53-15.29l72.44-112.94c1.2-1.87 2.79-3.439 4.66-4.62l48.07-30.109c2.44-1.53 5.2-2.301 7.96-2.301s5.52.771 7.96 2.301l48.07 30.109c1.87 1.181 3.46 2.75 4.66 4.61l72.44 112.95c2.96 4.609 3.16 10.479.53 15.29z" fill="#90cc1c"/><path d="m389.66 315.901c-2.63 4.81-7.68 7.81-13.16 7.81h-120.5v-173.071c2.76 0 5.52.771 7.96 2.301l48.07 30.109c1.87 1.181 3.46 2.75 4.66 4.61l72.44 112.95c2.96 4.61 3.16 10.48.53 15.291z" fill="#6b0"/><path d="m374.66 202.84c-2.61 4.88-7.69 7.92-13.22 7.92h-210.88c-5.53 0-10.61-3.04-13.22-7.92s-2.33-10.79.74-15.399l105.44-158.111c2.78-4.18 7.47-6.68 12.48-6.68s9.7 2.5 12.48 6.68l105.44 158.11c3.07 4.61 3.35 10.52.74 15.4z" fill="#b9dd39"/><path d="m374.66 202.84c-2.61 4.88-7.69 7.92-13.22 7.92h-105.44v-188.11c5.01 0 9.7 2.5 12.48 6.68l105.44 158.11c3.07 4.61 3.35 10.52.74 15.4z" fill="#90cc1c"/></g></svg>